<mxfile host="65bd71144e">
    <diagram id="04IZSYbgauqlpSg7I90b" name="第 1 页">
        <mxGraphModel dx="2053" dy="931" grid="1" gridSize="10" guides="1" tooltips="1" connect="1" arrows="1" fold="1" page="1" pageScale="1" pageWidth="827" pageHeight="1169" math="0" shadow="0">
            <root>
                <mxCell id="0"/>
                <mxCell id="1" parent="0"/>
                <mxCell id="2" value=":User" style="shape=umlLifeline;perimeter=lifelinePerimeter;whiteSpace=wrap;html=1;container=1;collapsible=0;recursiveResize=0;outlineConnect=0;" vertex="1" parent="1">
                    <mxGeometry x="165" y="80" width="100" height="740" as="geometry"/>
                </mxCell>
                <mxCell id="3" value="" style="html=1;points=[];perimeter=orthogonalPerimeter;" vertex="1" parent="2">
                    <mxGeometry x="45" y="90" width="10" height="600" as="geometry"/>
                </mxCell>
                <mxCell id="4" value=":ChooseFreePerson.html" style="shape=umlLifeline;perimeter=lifelinePerimeter;whiteSpace=wrap;html=1;container=1;collapsible=0;recursiveResize=0;outlineConnect=0;" vertex="1" parent="1">
                    <mxGeometry x="295" y="80" width="140" height="300" as="geometry"/>
                </mxCell>
                <mxCell id="9" value="" style="html=1;points=[];perimeter=orthogonalPerimeter;" vertex="1" parent="4">
                    <mxGeometry x="65" y="90" width="10" height="60" as="geometry"/>
                </mxCell>
                <mxCell id="5" value=":ArrangeJob.html" style="shape=umlLifeline;perimeter=lifelinePerimeter;whiteSpace=wrap;html=1;container=1;collapsible=0;recursiveResize=0;outlineConnect=0;" vertex="1" parent="1">
                    <mxGeometry x="456" y="80" width="106" height="750" as="geometry"/>
                </mxCell>
                <mxCell id="13" value="" style="html=1;points=[];perimeter=orthogonalPerimeter;" vertex="1" parent="5">
                    <mxGeometry x="48" y="150" width="10" height="540" as="geometry"/>
                </mxCell>
                <mxCell id="6" value=":WorkflowInfoController" style="shape=umlLifeline;perimeter=lifelinePerimeter;whiteSpace=wrap;html=1;container=1;collapsible=0;recursiveResize=0;outlineConnect=0;" vertex="1" parent="1">
                    <mxGeometry x="590" y="80" width="130" height="320" as="geometry"/>
                </mxCell>
                <mxCell id="17" value="" style="html=1;points=[];perimeter=orthogonalPerimeter;" vertex="1" parent="6">
                    <mxGeometry x="60" y="210" width="10" height="60" as="geometry"/>
                </mxCell>
                <mxCell id="7" value=":WorkflowInfoService" style="shape=umlLifeline;perimeter=lifelinePerimeter;whiteSpace=wrap;html=1;container=1;collapsible=0;recursiveResize=0;outlineConnect=0;" vertex="1" parent="1">
                    <mxGeometry x="760" y="80" width="130" height="760" as="geometry"/>
                </mxCell>
                <mxCell id="19" value="" style="html=1;points=[];perimeter=orthogonalPerimeter;" vertex="1" parent="7">
                    <mxGeometry x="60" y="270" width="10" height="410" as="geometry"/>
                </mxCell>
                <mxCell id="22" value="6. 检查员工是否空闲" style="html=1;verticalAlign=bottom;endArrow=block;" edge="1" parent="7">
                    <mxGeometry width="80" relative="1" as="geometry">
                        <mxPoint x="74" y="291" as="sourcePoint"/>
                        <mxPoint x="64" y="390" as="targetPoint"/>
                        <Array as="points">
                            <mxPoint x="94" y="291"/>
                            <mxPoint x="114" y="291"/>
                            <mxPoint x="114" y="310"/>
                            <mxPoint x="114" y="368"/>
                            <mxPoint x="114" y="389"/>
                            <mxPoint x="84" y="390"/>
                        </Array>
                    </mxGeometry>
                </mxCell>
                <mxCell id="8" value="DB" style="shape=umlLifeline;perimeter=lifelinePerimeter;whiteSpace=wrap;html=1;container=1;collapsible=0;recursiveResize=0;outlineConnect=0;" vertex="1" parent="1">
                    <mxGeometry x="921" y="80" width="129" height="750" as="geometry"/>
                </mxCell>
                <mxCell id="24" value="员工空闲" style="shape=umlFrame;whiteSpace=wrap;html=1;" vertex="1" parent="8">
                    <mxGeometry x="-740" y="400" width="860" height="200" as="geometry"/>
                </mxCell>
                <mxCell id="25" value="员工不空闲" style="shape=umlFrame;whiteSpace=wrap;html=1;" vertex="1" parent="8">
                    <mxGeometry x="-740" y="630" width="859" height="70" as="geometry"/>
                </mxCell>
                <mxCell id="12" value="1. 进入页面，点击员工分配工作" style="html=1;verticalAlign=bottom;endArrow=block;entryX=0.064;entryY=0.031;entryDx=0;entryDy=0;entryPerimeter=0;exitX=0.703;exitY=0;exitDx=0;exitDy=0;exitPerimeter=0;" edge="1" parent="1" source="3" target="9">
                    <mxGeometry x="-0.0014" width="80" relative="1" as="geometry">
                        <mxPoint x="185" y="180" as="sourcePoint"/>
                        <mxPoint x="345" y="170" as="targetPoint"/>
                        <Array as="points"/>
                        <mxPoint as="offset"/>
                    </mxGeometry>
                </mxCell>
                <mxCell id="14" value="2. 跳转至工作安排页面" style="html=1;verticalAlign=bottom;endArrow=block;entryX=0.283;entryY=-0.001;entryDx=0;entryDy=0;entryPerimeter=0;" edge="1" parent="1" source="9" target="13">
                    <mxGeometry x="-0.0014" width="80" relative="1" as="geometry">
                        <mxPoint x="124.03000000000009" y="180" as="sourcePoint"/>
                        <mxPoint x="502" y="240" as="targetPoint"/>
                        <Array as="points">
                            <mxPoint x="492" y="230"/>
                            <mxPoint x="502" y="230"/>
                        </Array>
                        <mxPoint as="offset"/>
                    </mxGeometry>
                </mxCell>
                <mxCell id="16" value="3. 选择要安排的工作，提交" style="html=1;verticalAlign=bottom;endArrow=block;" edge="1" parent="1" source="2" target="5">
                    <mxGeometry width="80" relative="1" as="geometry">
                        <mxPoint x="372" y="290" as="sourcePoint"/>
                        <mxPoint x="442" y="310" as="targetPoint"/>
                        <Array as="points">
                            <mxPoint x="432" y="311"/>
                        </Array>
                    </mxGeometry>
                </mxCell>
                <mxCell id="18" value="4. 传送员工和工作信息" style="html=1;verticalAlign=bottom;endArrow=block;" edge="1" parent="1" source="5" target="6">
                    <mxGeometry width="80" relative="1" as="geometry">
                        <mxPoint x="520" y="330" as="sourcePoint"/>
                        <mxPoint x="600" y="330" as="targetPoint"/>
                        <Array as="points">
                            <mxPoint x="600" y="290"/>
                        </Array>
                    </mxGeometry>
                </mxCell>
                <mxCell id="20" value="5. 发送员工id和日期" style="html=1;verticalAlign=bottom;endArrow=block;" edge="1" parent="1" source="6" target="19">
                    <mxGeometry width="80" relative="1" as="geometry">
                        <mxPoint x="660" y="330" as="sourcePoint"/>
                        <mxPoint x="740" y="330" as="targetPoint"/>
                        <Array as="points">
                            <mxPoint x="700" y="350"/>
                        </Array>
                    </mxGeometry>
                </mxCell>
                <mxCell id="27" value="" style="html=1;points=[];perimeter=orthogonalPerimeter;" vertex="1" parent="1">
                    <mxGeometry x="984" y="505" width="10" height="80" as="geometry"/>
                </mxCell>
                <mxCell id="28" value="7.1 将对应的工作安排到员工工作表中" style="html=1;verticalAlign=bottom;endArrow=block;entryX=0.023;entryY=0.112;entryDx=0;entryDy=0;entryPerimeter=0;" edge="1" parent="1" target="27">
                    <mxGeometry width="80" relative="1" as="geometry">
                        <mxPoint x="824.3235294117649" y="513" as="sourcePoint"/>
                        <mxPoint x="1020" y="513" as="targetPoint"/>
                    </mxGeometry>
                </mxCell>
                <mxCell id="30" value="7.1.2 返回存储成功提示" style="html=1;verticalAlign=bottom;endArrow=block;" edge="1" parent="1">
                    <mxGeometry width="80" relative="1" as="geometry">
                        <mxPoint x="980" y="586" as="sourcePoint"/>
                        <mxPoint x="830" y="586.1999999999998" as="targetPoint"/>
                    </mxGeometry>
                </mxCell>
                <mxCell id="31" value="7.1.3 返回安排成功提示" style="html=1;verticalAlign=bottom;endArrow=block;" edge="1" parent="1">
                    <mxGeometry width="80" relative="1" as="geometry">
                        <mxPoint x="820" y="637" as="sourcePoint"/>
                        <mxPoint x="510" y="637" as="targetPoint"/>
                    </mxGeometry>
                </mxCell>
                <mxCell id="32" value="7.1.4 展示安排成功提示" style="html=1;verticalAlign=bottom;endArrow=block;" edge="1" parent="1" target="2">
                    <mxGeometry width="80" relative="1" as="geometry">
                        <mxPoint x="502" y="647" as="sourcePoint"/>
                        <mxPoint x="519.0238095238096" y="647" as="targetPoint"/>
                    </mxGeometry>
                </mxCell>
                <mxCell id="33" value="7.2 返回安排失败提示" style="html=1;verticalAlign=bottom;endArrow=block;" edge="1" parent="1">
                    <mxGeometry width="80" relative="1" as="geometry">
                        <mxPoint x="821" y="741.9999999999998" as="sourcePoint"/>
                        <mxPoint x="520" y="740" as="targetPoint"/>
                    </mxGeometry>
                </mxCell>
                <mxCell id="37" value="&lt;span style=&quot;color: rgba(0, 0, 0, 0); font-family: monospace; font-size: 0px; text-align: start; background-color: rgb(251, 251, 251);&quot;&gt;%3CmxGraphModel%3E%3Croot%3E%3CmxCell%20id%3D%220%22%2F%3E%3CmxCell%20id%3D%221%22%20parent%3D%220%22%2F%3E%3CmxCell%20id%3D%222%22%20value%3D%227.2%20%E8%BF%94%E5%9B%9E%E5%AE%89%E6%8E%92%E5%A4%B1%E8%B4%A5%E6%8F%90%E7%A4%BA%22%20style%3D%22html%3D1%3BverticalAlign%3Dbottom%3BendArrow%3Dblock%3B%22%20edge%3D%221%22%20parent%3D%221%22%3E%3CmxGeometry%20width%3D%2280%22%20relative%3D%221%22%20as%3D%22geometry%22%3E%3CmxPoint%20x%3D%22821%22%20y%3D%22741.9999999999998%22%20as%3D%22sourcePoint%22%2F%3E%3CmxPoint%20x%3D%22520%22%20y%3D%22740%22%20as%3D%22targetPoint%22%2F%3E%3C%2FmxGeometry%3E%3C%2FmxCell%3E%3C%2Froot%3E%3C%2FmxGraphModel%3E&lt;/span&gt;&lt;span style=&quot;color: rgba(0, 0, 0, 0); font-family: monospace; font-size: 0px; text-align: start; background-color: rgb(251, 251, 251);&quot;&gt;%3CmxGraphModel%3E%3Croot%3E%3CmxCell%20id%3D%220%22%2F%3E%3CmxCell%20id%3D%221%22%20parent%3D%220%22%2F%3E%3CmxCell%20id%3D%222%22%20value%3D%227.2%20%E8%BF%94%E5%9B%9E%E5%AE%89%E6%8E%92%E5%A4%B1%E8%B4%A5%E6%8F%90%E7%A4%BA%22%20style%3D%22html%3D1%3BverticalAlign%3Dbottom%3BendArrow%3Dblock%3B%22%20edge%3D%221%22%20parent%3D%221%22%3E%3CmxGeometry%20width%3D%2280%22%20relative%3D%221%22%20as%3D%22geometry%22%3E%3CmxPoint%20x%3D%22821%22%20y%3D%22741.9999999999998%22%20as%3D%22sourcePoint%22%2F%3E%3CmxPoint%20x%3D%22520%22%20y%3D%22740%22%20as%3D%22targetPoint%22%2F%3E%3C%2FmxGeometry%3E%3C%2FmxCell%3E%3C%2Froot%3E%3C%2FmxGraphModel%3E&lt;/span&gt;" style="html=1;verticalAlign=bottom;endArrow=block;" edge="1" parent="1">
                    <mxGeometry x="0.1001" y="-11" width="80" relative="1" as="geometry">
                        <mxPoint x="500" y="752" as="sourcePoint"/>
                        <mxPoint x="214.5" y="750" as="targetPoint"/>
                        <mxPoint as="offset"/>
                    </mxGeometry>
                </mxCell>
                <mxCell id="38" value="&lt;span style=&quot;&quot;&gt;7.2.1 展示安排失败提示&lt;/span&gt;" style="edgeLabel;html=1;align=center;verticalAlign=middle;resizable=0;points=[];" vertex="1" connectable="0" parent="37">
                    <mxGeometry x="0.1249" y="-1" relative="1" as="geometry">
                        <mxPoint as="offset"/>
                    </mxGeometry>
                </mxCell>
            </root>
        </mxGraphModel>
    </diagram>
</mxfile>